<?xml version="1.0" encoding="UTF-8" standalone="no"?>
<!-- Created with Inkscape (http://www.inkscape.org/) -->

<svg
   width="376.22281mm"
   height="145.26433mm"
   viewBox="0 0 376.22281 145.26432"
   version="1.1"
   id="svg5"
   inkscape:version="1.1 (c4e8f9ed74, 2021-05-24)"
   sodipodi:docname="Gravity981.svg"
   xmlns:inkscape="http://www.inkscape.org/namespaces/inkscape"
   xmlns:sodipodi="http://sodipodi.sourceforge.net/DTD/sodipodi-0.dtd"
   xmlns="http://www.w3.org/2000/svg"
   xmlns:svg="http://www.w3.org/2000/svg">
  <sodipodi:namedview
     id="namedview7"
     pagecolor="#c8c8c8"
     bordercolor="#666666"
     borderopacity="1.0"
     inkscape:pageshadow="2"
     inkscape:pageopacity="1"
     inkscape:pagecheckerboard="true"
     inkscape:document-units="mm"
     showgrid="false"
     inkscape:zoom="0.94867182"
     inkscape:cx="477.5097"
     inkscape:cy="324.13738"
     inkscape:window-width="1920"
     inkscape:window-height="1131"
     inkscape:window-x="0"
     inkscape:window-y="0"
     inkscape:window-maximized="1"
     inkscape:current-layer="g77927"
     fit-margin-top="0"
     fit-margin-left="0"
     fit-margin-right="0"
     fit-margin-bottom="0"
     lock-margins="true" />
  <defs
     id="defs2">
    <marker
       style="overflow:visible"
       id="marker47796"
       refX="0"
       refY="0"
       orient="auto"
       inkscape:stockid="Arrow1Send"
       inkscape:isstock="true">
      <path
         transform="matrix(-0.2,0,0,-0.2,-1.2,0)"
         style="fill:context-stroke;fill-rule:evenodd;stroke:context-stroke;stroke-width:1pt"
         d="M 0,0 5,-5 -12.5,0 5,5 Z"
         id="path47372" />
    </marker>
    <marker
       style="overflow:visible"
       id="Arrow1Mend"
       refX="0"
       refY="0"
       orient="auto"
       inkscape:stockid="Arrow1Mend"
       inkscape:isstock="true">
      <path
         transform="matrix(-0.4,0,0,-0.4,-4,0)"
         style="fill:context-stroke;fill-rule:evenodd;stroke:context-stroke;stroke-width:1pt"
         d="M 0,0 5,-5 -12.5,0 5,5 Z"
         id="path47366" />
    </marker>
    <linearGradient
       id="linearGradient1134"
       inkscape:swatch="solid">
      <stop
         style="stop-color:#000000;stop-opacity:1;"
         offset="0"
         id="stop1132" />
    </linearGradient>
    <marker
       style="overflow:visible"
       id="Arrow2Mend"
       refX="0"
       refY="0"
       orient="auto"
       inkscape:stockid="Arrow2Mend"
       inkscape:isstock="true">
      <path
         transform="scale(-0.6)"
         d="M 8.7185878,4.0337352 -2.2072895,0.01601326 8.7185884,-4.0017078 c -1.7454984,2.3720609 -1.7354408,5.6174519 -6e-7,8.035443 z"
         style="fill:context-stroke;fill-rule:evenodd;stroke-width:0.625;stroke-linejoin:round"
         id="path2218" />
    </marker>
    <marker
       style="overflow:visible"
       id="Arrow1Send"
       refX="0"
       refY="0"
       orient="auto"
       inkscape:stockid="Arrow1Send"
       inkscape:isstock="true">
      <path
         transform="matrix(-0.2,0,0,-0.2,-1.2,0)"
         style="fill:context-stroke;fill-rule:evenodd;stroke:context-stroke;stroke-width:1pt"
         d="M 0,0 5,-5 -12.5,0 5,5 Z"
         id="path2206" />
    </marker>
    <rect
       x="162.39639"
       y="777.76508"
       width="184.09351"
       height="172.06285"
       id="rect6202" />
    <marker
       id="ExperimentalArrow"
       refX="5"
       refY="3"
       orient="auto-start-reverse"
       inkscape:stockid="ExperimentalArrow"
       inkscape:isstock="true">
      <path
         style="fill:context-stroke"
         d="M 10,3 0,6 V 0 Z"
         id="path2446" />
    </marker>
    <marker
       style="overflow:visible"
       id="TriangleOutL"
       refX="0"
       refY="0"
       orient="auto"
       inkscape:stockid="TriangleOutL"
       inkscape:isstock="true">
      <path
         transform="scale(0.8)"
         style="fill:context-stroke;fill-rule:evenodd;stroke:context-stroke;stroke-width:1pt"
         d="M 5.77,0 -2.88,5 V -5 Z"
         id="path2335" />
    </marker>
    <marker
       style="overflow:visible"
       id="Arrow2Lend"
       refX="0"
       refY="0"
       orient="auto"
       inkscape:stockid="Arrow2Lend"
       inkscape:isstock="true">
      <path
         transform="matrix(-1.1,0,0,-1.1,-1.1,0)"
         d="M 8.7185878,4.0337352 -2.2072895,0.01601326 8.7185884,-4.0017078 c -1.7454984,2.3720609 -1.7354408,5.6174519 -6e-7,8.035443 z"
         style="fill:context-stroke;fill-rule:evenodd;stroke-width:0.625;stroke-linejoin:round"
         id="path2212" />
    </marker>
    <marker
       id="ExperimentalArrow-1"
       refX="5"
       refY="3"
       orient="auto-start-reverse"
       inkscape:stockid="ExperimentalArrow"
       inkscape:isstock="true">
      <path
         style="fill:context-stroke"
         d="M 10,3 0,6 V 0 Z"
         id="path2446-2" />
    </marker>
    <rect
       x="162.39639"
       y="777.76508"
       width="184.09351"
       height="172.06285"
       id="rect6202-0" />
    <marker
       id="ExperimentalArrow-1-3"
       refX="5"
       refY="3"
       orient="auto-start-reverse"
       inkscape:stockid="ExperimentalArrow"
       inkscape:isstock="true">
      <path
         style="fill:context-stroke"
         d="M 10,3 0,6 V 0 Z"
         id="path2446-2-6" />
    </marker>
    <rect
       x="162.39639"
       y="777.76508"
       width="184.09351"
       height="172.06285"
       id="rect6202-0-6" />
    <rect
       x="162.39639"
       y="777.76508"
       width="184.09351"
       height="172.06285"
       id="rect6202-0-61" />
    <rect
       x="162.39639"
       y="777.76508"
       width="184.09351"
       height="172.06285"
       id="rect6202-0-61-7" />
    <marker
       style="overflow:visible"
       refX="0"
       refY="0"
       orient="auto"
       inkscape:stockid="TriangleOutL2268"
       inkscape:isstock="true"
       id="TriangleOutL2268">
      <path
         transform="scale(0.8)"
         style="fill:#ffffff;fill-opacity:1;fill-rule:evenodd;stroke:#ffffff;stroke-width:1pt;stroke-opacity:1"
         d="M 5.77,0 -2.88,5 V -5 Z"
         id="path13131" />
    </marker>
    <marker
       style="overflow:visible"
       refX="0"
       refY="0"
       orient="auto"
       inkscape:stockid="TriangleOutL22689186"
       inkscape:isstock="true"
       id="TriangleOutL22689186">
      <path
         transform="scale(0.8)"
         style="fill:#ffffff;fill-opacity:1;fill-rule:evenodd;stroke:#ffffff;stroke-width:1pt;stroke-opacity:1"
         d="M 5.77,0 -2.88,5 V -5 Z"
         id="path13324" />
    </marker>
    <marker
       refX="5"
       refY="3"
       orient="auto-start-reverse"
       inkscape:stockid="ExperimentalArrow-19558"
       inkscape:isstock="true"
       id="ExperimentalArrow-19558">
      <path
         style="fill:#ffffff;fill-opacity:1;stroke:#ffffff;stroke-opacity:1"
         d="M 10,3 0,6 V 0 Z"
         id="path13563" />
    </marker>
    <marker
       refX="5"
       refY="3"
       orient="auto-start-reverse"
       inkscape:stockid="ExperimentalArrow-1-33949"
       inkscape:isstock="true"
       id="ExperimentalArrow-1-33949">
      <path
         style="fill:#ffffff;fill-opacity:1;stroke:#ffffff;stroke-opacity:1"
         d="M 10,3 0,6 V 0 Z"
         id="path13566" />
    </marker>
    <marker
       refX="5"
       refY="3"
       orient="auto-start-reverse"
       inkscape:stockid="ExperimentalArrow-1-3586"
       inkscape:isstock="true"
       id="ExperimentalArrow-1-3586">
      <path
         style="fill:#ffffff;fill-opacity:1;stroke:#ffffff;stroke-opacity:1"
         d="M 10,3 0,6 V 0 Z"
         id="path13569" />
    </marker>
    <marker
       style="overflow:visible"
       refX="0"
       refY="0"
       orient="auto"
       inkscape:stockid="Arrow2Mend4922"
       inkscape:isstock="true"
       id="Arrow2Mend4922">
      <path
         transform="scale(-0.6)"
         d="M 8.7185878,4.0337352 -2.2072895,0.01601326 8.7185884,-4.0017078 c -1.7454984,2.3720609 -1.7354408,5.6174519 -6e-7,8.035443 z"
         style="fill:#ffffff;fill-opacity:1;fill-rule:evenodd;stroke:#ffffff;stroke-width:0.625;stroke-linejoin:round;stroke-opacity:1"
         id="path13951" />
    </marker>
    <marker
       style="overflow:visible"
       refX="0"
       refY="0"
       orient="auto"
       inkscape:stockid="Arrow2Mend1054"
       inkscape:isstock="true"
       id="Arrow2Mend1054">
      <path
         transform="scale(-0.6)"
         d="M 8.7185878,4.0337352 -2.2072895,0.01601326 8.7185884,-4.0017078 c -1.7454984,2.3720609 -1.7354408,5.6174519 -6e-7,8.035443 z"
         style="fill:#ffffff;fill-opacity:1;fill-rule:evenodd;stroke:#ffffff;stroke-width:0.625;stroke-linejoin:round;stroke-opacity:1"
         id="path13954" />
    </marker>
    <marker
       style="overflow:visible"
       refX="0"
       refY="0"
       orient="auto"
       inkscape:stockid="Arrow2Mend371"
       inkscape:isstock="true"
       id="Arrow2Mend371">
      <path
         transform="scale(-0.6)"
         d="M 8.7185878,4.0337352 -2.2072895,0.01601326 8.7185884,-4.0017078 c -1.7454984,2.3720609 -1.7354408,5.6174519 -6e-7,8.035443 z"
         style="fill:#ffffff;fill-opacity:1;fill-rule:evenodd;stroke:#ffffff;stroke-width:0.625;stroke-linejoin:round;stroke-opacity:1"
         id="path13957" />
    </marker>
    <rect
       x="162.39639"
       y="777.76508"
       width="1064.0903"
       height="268.45172"
       id="rect6202-0-2" />
    <rect
       x="162.39639"
       y="777.76508"
       width="184.09351"
       height="172.06285"
       id="rect6202-0-1" />
    <rect
       x="162.39639"
       y="777.76508"
       width="184.09351"
       height="172.06285"
       id="rect6202-0-9" />
    <rect
       x="162.39639"
       y="777.76508"
       width="976.70251"
       height="531.24103"
       id="rect6202-0-2-3" />
    <rect
       x="162.39639"
       y="777.76508"
       width="1064.0903"
       height="268.45172"
       id="rect6202-0-2-2" />
    <rect
       x="162.39639"
       y="777.76508"
       width="1064.0903"
       height="268.45172"
       id="rect6202-0-2-2-0" />
    <rect
       x="162.39639"
       y="777.76508"
       width="1064.0903"
       height="268.45172"
       id="rect6202-0-2-2-0-3" />
  </defs>
  <g
     inkscape:label="Layer 1"
     inkscape:groupmode="layer"
     id="layer1"
     transform="translate(-15.317607,-110.49951)">
    <g
       id="g77927">
      <g
         aria-label="9.807246731…m/s2"
         transform="matrix(0.26458333,0,0,0.26458333,-28.488452,-81.844095)"
         id="text6200-9-6"
         style="font-size:93.3333px;line-height:1.25;-inkscape-font-specification:sans-serif;white-space:pre;shape-inside:url(#rect6202-0-2);fill:currentColor">
        <path
           d="m 215.58006,824.90862 q 0,8.88672 -2.05078,16.13281 -2.00521,7.24609 -6.10677,12.35026 -4.14713,5.19531 -10.39062,8.02083 -6.24349,2.82552 -14.67448,2.82552 -2.36979,0 -4.46614,-0.27344 -2.09635,-0.22787 -3.73698,-0.77474 v -8.70442 h 0.45573 q 1.32162,0.68359 3.73698,1.32161 2.41536,0.59245 5.3776,0.59245 10.07161,0 15.76822,-6.01563 5.74219,-6.06119 6.65365,-16.67968 -4.23828,2.55209 -7.97526,3.64584 -3.73698,1.09375 -8.15755,1.09375 -4.19271,0 -7.61067,-0.82032 -3.3724,-0.82031 -6.79036,-3.1901 -4.01042,-2.77995 -6.0612,-7.0638 -2.00521,-4.28385 -2.00521,-10.2539 0,-10.39062 6.83594,-16.90755 6.83593,-6.51692 16.67968,-6.51692 4.92187,0 9.11458,1.54948 4.1927,1.5039 7.33723,4.55729 3.8737,3.78255 5.97005,9.7526 2.09636,5.92447 2.09636,15.35806 z m -9.20573,-1.95963 q 0,-7.0638 -1.45833,-11.34765 -1.45833,-4.28386 -4.01042,-6.65365 -2.14192,-2.05078 -4.60286,-2.91666 -2.46094,-0.91146 -5.33203,-0.91146 -6.5625,0 -10.39062,4.10156 -3.78255,4.10156 -3.78255,11.52995 0,4.32942 1.23047,7.06379 1.23047,2.73438 4.14713,4.78516 2.05078,1.41276 4.51172,1.91406 2.46094,0.45573 5.46875,0.45573 3.55468,0 7.20052,-0.95703 3.64583,-0.95703 6.83593,-2.77995 0.0456,-0.95703 0.0911,-1.86849 0.0911,-0.95703 0.0911,-2.41536 z"
           id="path80704" />
        <path
           d="m 244.15427,862.91642 h -10.89193 v -12.98827 h 10.89193 z"
           id="path80706" />
        <path
           d="m 309.46023,844.00367 q 0,8.79557 -6.88151,14.6289 -6.83594,5.83333 -17.22656,5.83333 -11.02864,0 -17.59114,-5.69661 -6.51692,-5.69661 -6.51692,-14.58333 0,-5.65104 3.28125,-10.20833 3.28125,-4.60286 9.2513,-7.29166 v -0.27344 q -5.46875,-2.91667 -8.11198,-6.38021 -2.59766,-3.46354 -2.59766,-8.65885 0,-7.65624 6.28906,-12.76041 6.28906,-5.10416 15.99609,-5.10416 10.16276,0 16.22395,4.8763 6.0612,4.8763 6.0612,12.39583 0,4.60286 -2.87109,9.069 -2.8711,4.42057 -8.43099,6.92708 v 0.27344 q 6.38021,2.73437 9.7526,6.74479 3.3724,4.01041 3.3724,10.20833 z m -10.80078,-33.1315 q 0,-4.8763 -3.78255,-7.74739 -3.73698,-2.91667 -9.57031,-2.91667 -5.74219,0 -9.43359,2.73438 -3.64583,2.73437 -3.64583,7.38281 0,3.28125 1.82291,5.69661 1.86849,2.36979 5.60547,4.23828 1.6862,0.82031 4.83073,2.14192 3.1901,1.32162 6.19791,2.1875 4.51172,-3.00781 6.24349,-6.24348 1.73177,-3.23568 1.73177,-7.47396 z m 1.41276,33.99738 q 0,-4.1927 -1.86849,-6.69921 -1.82292,-2.55208 -7.20052,-5.10417 -2.14193,-1.0026 -4.69401,-1.86849 -2.55208,-0.86588 -6.79036,-2.41536 -4.10156,2.23307 -6.60807,6.0612 -2.46094,3.82812 -2.46094,8.65885 0,6.15234 4.23828,10.16275 4.23828,4.01042 10.75521,4.01042 6.65364,0 10.61848,-3.41797 4.01042,-3.41797 4.01042,-9.38802 z"
           id="path80708" />
        <path
           d="m 368.2037,828.96461 q 0,18.27473 -5.74219,26.84244 -5.69661,8.52213 -17.72785,8.52213 -12.21354,0 -17.86458,-8.65885 -5.60547,-8.65885 -5.60547,-26.61457 0,-18.09244 5.69662,-26.70572 5.69661,-8.65885 17.77343,-8.65885 12.21353,0 17.819,8.79557 5.65104,8.74999 5.65104,26.47785 z m -11.98567,20.6901 q 1.59505,-3.69141 2.14192,-8.65885 0.59245,-5.01302 0.59245,-12.03125 0,-6.92708 -0.59245,-12.03124 -0.54687,-5.10417 -2.1875,-8.65885 -1.59505,-3.50912 -4.37499,-5.28646 -2.73438,-1.77734 -7.0638,-1.77734 -4.28386,0 -7.10938,1.77734 -2.77994,1.77734 -4.42057,5.3776 -1.54948,3.3724 -2.14192,8.79557 -0.54688,5.42318 -0.54688,11.89453 0,7.10937 0.5013,11.89452 0.50131,4.78516 2.14193,8.56771 1.50391,3.55469 4.23828,5.42317 2.77995,1.86849 7.33724,1.86849 4.28385,0 7.10937,-1.77734 2.82552,-1.77734 4.375,-5.3776 z"
           id="path80710" />
        <path
           d="m 427.81304,805.22113 -30.71613,57.69529 h -9.7526 l 32.67577,-59.88279 h -38.64582 v -7.97525 h 46.43878 z"
           id="path80712" />
        <path
           d="m 486.96667,862.91642 h -45.93748 v -9.52473 q 4.78516,-4.10156 9.57031,-8.20313 4.83073,-4.10156 8.97786,-8.15754 8.75,-8.47656 11.98567,-13.44401 3.23568,-5.01302 3.23568,-10.80078 0,-5.28645 -3.50911,-8.24869 -3.46354,-3.00781 -9.70703,-3.00781 -4.14713,0 -8.97786,1.45833 -4.83073,1.45833 -9.43359,4.46614 h -0.45573 v -9.57031 q 3.23568,-1.59505 8.61328,-2.91666 5.42317,-1.32161 10.48176,-1.32161 10.4362,0 16.36068,5.05859 5.92447,5.01302 5.92447,13.62629 0,3.8737 -1.0026,7.24609 -0.95703,3.32683 -2.87109,6.33464 -1.77735,2.82552 -4.19271,5.55989 -2.36979,2.73438 -5.78776,6.0612 -4.8763,4.78515 -10.07161,9.29687 -5.19531,4.46614 -9.70703,8.29427 h 36.50389 z"
           id="path80714" />
        <path
           d="m 547.85206,843.82138 h -10.07161 v 19.09504 h -8.75 v -19.09504 h -32.49347 v -10.48177 l 32.85806,-38.28123 h 8.38541 v 41.47133 h 10.07161 z m -18.82161,-7.29167 v -30.62498 l -26.29556,30.62498 z"
           id="path80716" />
        <path
           d="m 606.64109,840.90471 q 0,10.34505 -6.83593,16.90755 -6.79036,6.51692 -16.67968,6.51692 -5.01302,0 -9.11458,-1.54948 -4.10156,-1.54948 -7.24609,-4.60286 -3.91927,-3.78255 -6.0612,-10.02604 -2.09635,-6.24348 -2.09635,-15.03905 0,-9.02344 1.91406,-15.99609 1.95963,-6.97266 6.19791,-12.39583 4.01042,-5.14974 10.34505,-8.02083 6.33463,-2.91667 14.76562,-2.91667 2.6888,0 4.51172,0.22787 1.82291,0.22786 3.6914,0.82031 v 8.70442 h -0.45573 q -1.27604,-0.68359 -3.87369,-1.27604 -2.55209,-0.63802 -5.24089,-0.63802 -9.79817,0 -15.6315,6.15234 -5.83333,6.10677 -6.79036,16.54297 3.82812,-2.32422 7.51953,-3.50912 3.73697,-1.23047 8.61327,-1.23047 4.32943,0 7.61068,0.82032 3.32682,0.77474 6.79036,3.1901 4.01041,2.77995 6.01562,7.01823 2.05078,4.23828 2.05078,10.29947 z m -9.2513,0.36458 q 0,-4.23827 -1.27604,-7.01822 -1.23047,-2.77995 -4.10156,-4.83073 -2.09635,-1.45833 -4.64843,-1.91406 -2.55209,-0.45573 -5.33203,-0.45573 -3.8737,0 -7.20052,0.91146 -3.32682,0.91146 -6.83594,2.82552 -0.0911,1.0026 -0.13671,1.95963 -0.0456,0.91146 -0.0456,2.32422 0,7.20052 1.45834,11.39323 1.5039,4.14713 4.10156,6.56249 2.09635,2.00521 4.51171,2.96224 2.46094,0.91146 5.33203,0.91146 6.60807,0 10.39062,-4.01042 3.78255,-4.05598 3.78255,-11.62109 z"
           id="path80718" />
        <path
           d="m 665.15672,805.22113 -30.71614,57.69529 h -9.7526 l 32.67577,-59.88279 h -38.64582 v -7.97525 h 46.43879 z"
           id="path80720" />
        <path
           d="m 718.34028,830.24065 q 2.1875,1.95964 3.60026,4.92188 1.41276,2.96223 1.41276,7.65624 0,4.64844 -1.68619,8.52214 -1.6862,3.87369 -4.73959,6.74478 -3.41796,3.19011 -8.0664,4.73959 -4.60286,1.5039 -10.11718,1.5039 -5.65104,0 -11.11979,-1.36719 -5.46875,-1.32161 -8.97786,-2.91666 v -9.52474 h 0.68359 q 3.8737,2.55209 9.11458,4.23828 5.24088,1.6862 10.11719,1.6862 2.87109,0 6.10676,-0.95703 3.23568,-0.95703 5.24089,-2.82552 2.09635,-2.00521 3.09895,-4.42057 1.04818,-2.41537 1.04818,-6.10677 0,-3.64583 -1.18489,-6.01562 -1.13933,-2.41537 -3.19011,-3.78255 -2.05078,-1.41276 -4.96744,-1.91407 -2.91667,-0.54687 -6.28906,-0.54687 h -4.10156 v -7.5651 h 3.1901 q 6.92708,0 11.02864,-2.87109 4.14713,-2.91667 4.14713,-8.47656 0,-2.46094 -1.04817,-4.28386 -1.04818,-1.86848 -2.91667,-3.05338 -1.95963,-1.1849 -4.19271,-1.64062 -2.23307,-0.45573 -5.05859,-0.45573 -4.32942,0 -9.20572,1.54948 -4.8763,1.54947 -9.20573,4.37499 h -0.45573 v -9.52473 q 3.23568,-1.59505 8.61328,-2.91667 5.42318,-1.36718 10.48177,-1.36718 4.96744,0 8.74999,0.91145 3.78255,0.91146 6.83594,2.91667 3.28125,2.1875 4.96745,5.28646 1.68619,3.09895 1.68619,7.24609 0,5.65104 -4.01041,9.88932 -3.96484,4.1927 -9.38802,5.28645 v 0.63802 q 2.1875,0.36459 5.01302,1.54948 2.82552,1.13932 4.78515,2.87109 z"
           id="path80722" />
        <path
           d="m 779.77254,862.91642 h -36.73175 v -6.92708 h 14.1276 v -45.48175 h -14.1276 v -6.19792 q 2.87109,0 6.15234,-0.45573 3.28125,-0.5013 4.96744,-1.41276 2.09636,-1.13932 3.28125,-2.87109 1.23047,-1.77734 1.41276,-4.73958 h 7.0638 v 61.15883 h 13.85416 z"
           id="path80724" />
        <path
           d="m 857.97566,862.91642 h -9.29687 v -10.16275 h 9.29687 z m -25.42968,0 h -9.29687 v -10.16275 h 9.29687 z m -25.42967,0 h -9.29688 v -10.16275 h 9.29688 z"
           id="path80726" />
        <path
           d="m 948.80246,862.91642 h -8.56771 v -28.98436 q 0,-3.28125 -0.31901,-6.33463 -0.27343,-3.05339 -1.23046,-4.87631 -1.04818,-1.95963 -3.00782,-2.96223 -1.95963,-1.00261 -5.65104,-1.00261 -3.60025,0 -7.20051,1.82292 -3.60026,1.77734 -7.20052,4.55729 0.13672,1.04818 0.22786,2.46094 0.0911,1.36718 0.0911,2.73437 v 32.58462 h -8.56771 v -28.98436 q 0,-3.3724 -0.31901,-6.38021 -0.27343,-3.05338 -1.23047,-4.8763 -1.04817,-1.95963 -3.00781,-2.91666 -1.95963,-1.00261 -5.65104,-1.00261 -3.50911,0 -7.0638,1.73177 -3.50911,1.73177 -7.01822,4.42057 v 38.0078 h -8.56771 v -50.90493 h 8.56771 v 5.65104 q 4.01041,-3.32682 7.97526,-5.19531 4.01041,-1.86849 8.52213,-1.86849 5.19531,0 8.79557,2.1875 3.64583,2.1875 5.42317,6.0612 5.19531,-4.375 9.47917,-6.28906 4.28385,-1.95964 9.16015,-1.95964 8.38541,0 12.35025,5.10417 4.01042,5.05859 4.01042,14.17317 z"
           id="path80728" />
        <path
           d="m 996.06153,792.00499 -32.67577,84.76559 h -7.88411 l 32.53905,-84.76559 z"
           id="path80730" />
        <path
           d="m 1044.0498,848.24195 q 0,6.97265 -5.7878,11.4388 -5.7421,4.46614 -15.7226,4.46614 -5.651,0 -10.3906,-1.32161 -4.694,-1.36719 -7.8841,-2.96224 v -9.61588 h 0.4557 q 4.056,3.05338 9.0234,4.8763 4.9675,1.77734 9.5248,1.77734 5.651,0 8.8411,-1.82292 3.1901,-1.82291 3.1901,-5.74218 0,-3.00781 -1.7318,-4.55729 -1.7317,-1.54948 -6.6536,-2.64323 -1.8229,-0.41016 -4.7852,-0.95703 -2.9166,-0.54688 -5.332,-1.1849 -6.6992,-1.77734 -9.5247,-5.19531 -2.78,-3.46354 -2.78,-8.47656 0,-3.14453 1.2761,-5.92447 1.3216,-2.77995 3.9648,-4.96745 2.5521,-2.14193 6.4714,-3.37239 3.9648,-1.27604 8.8411,-1.27604 4.5573,0 9.2057,1.13932 4.694,1.09375 7.793,2.6888 v 9.16015 h -0.4557 q -3.2813,-2.41536 -7.9753,-4.05599 -4.694,-1.68619 -9.2057,-1.68619 -4.694,0 -7.9297,1.82291 -3.2357,1.77735 -3.2357,5.33203 0,3.14453 1.9597,4.73958 1.914,1.59505 6.1979,2.59766 2.3698,0.54687 5.2864,1.09375 2.9623,0.54687 4.9219,1.0026 5.9701,1.36719 9.2057,4.69401 3.2357,3.37239 3.2357,8.93229 z"
           id="path80732" />
        <path
           d="m 1082.5065,825.5831 h -29.8594 v -6.19108 q 3.1104,-2.66601 6.2207,-5.33203 3.14,-2.66601 5.8356,-5.3024 5.6875,-5.50977 7.7907,-8.73861 2.1032,-3.25846 2.1032,-7.0205 0,-3.4362 -2.2809,-5.36165 -2.2513,-1.95508 -6.3096,-1.95508 -2.6956,0 -5.8356,0.94792 -3.14,0.94791 -6.1318,2.90299 h -0.2962 v -6.2207 q 2.1032,-1.03678 5.5986,-1.89583 3.5251,-0.85905 6.8131,-0.85905 6.7836,0 10.6345,3.28808 3.8509,3.25847 3.8509,8.8571 0,2.5179 -0.6517,4.70995 -0.6221,2.16244 -1.8662,4.11752 -1.1553,1.83658 -2.7253,3.61393 -1.5403,1.77734 -3.762,3.93977 -3.1696,3.11035 -6.5466,6.04297 -3.3769,2.90299 -6.3095,5.39127 h 23.7275 z"
           style="font-size:65%;baseline-shift:super"
           id="path80734" />
      </g>
      <g
         aria-label="Gal"
         transform="matrix(0.26458333,0,0,0.26458333,-120.92762,-91.681178)"
         id="text6200-9-6-7"
         style="font-size:40px;line-height:1.25;-inkscape-font-specification:sans-serif;text-align:center;white-space:pre;shape-inside:url(#rect6202-0-2-2);fill:currentColor">
        <path
           d="m 689.59766,812.1104 q -2.38282,1.09375 -5.21485,1.91406 -2.8125,0.80078 -5.44922,0.80078 -3.39843,0 -6.23047,-0.9375 -2.83203,-0.9375 -4.82421,-2.8125 -2.01172,-1.89453 -3.10547,-4.72656 -1.09375,-2.85156 -1.09375,-6.66015 0,-6.97266 4.0625,-10.9961 4.08203,-4.04297 11.1914,-4.04297 2.48047,0 5.0586,0.60547 2.59765,0.58594 5.58593,2.01172 v 4.58984 h -0.35156 q -0.60547,-0.46875 -1.75781,-1.23046 -1.15234,-0.76172 -2.26563,-1.26954 -1.34765,-0.60546 -3.0664,-0.99609 -1.69922,-0.41016 -3.86719,-0.41016 -4.88281,0 -7.73437,3.14454 -2.83204,3.125 -2.83204,8.47656 0,5.64453 2.96875,8.78906 2.96875,3.125 8.08594,3.125 1.875,0 3.73047,-0.37109 1.875,-0.3711 3.28125,-0.95703 v -7.12891 h -7.79297 v -3.39844 h 11.6211 z"
           id="path85495" />
        <path
           d="m 713.01562,814.25884 h -3.65234 v -2.32422 q -0.48828,0.33203 -1.32812,0.9375 -0.82032,0.58594 -1.60157,0.9375 -0.91797,0.44922 -2.10937,0.74219 -1.19141,0.3125 -2.79297,0.3125 -2.94922,0 -5,-1.95313 -2.05078,-1.95312 -2.05078,-4.98047 0,-2.48047 1.05469,-4.0039 1.07421,-1.54297 3.04687,-2.42188 1.99219,-0.8789 4.78516,-1.1914 2.79297,-0.3125 5.99609,-0.46875 v -0.56641 q 0,-1.25 -0.44922,-2.07031 -0.42969,-0.82032 -1.25,-1.28907 -0.78125,-0.44921 -1.875,-0.60546 -1.09375,-0.15625 -2.28515,-0.15625 -1.44532,0 -3.22266,0.39062 -1.77734,0.37109 -3.67188,1.09375 h -0.19531 v -3.73047 q 1.07422,-0.29297 3.10547,-0.64453 2.03125,-0.35156 4.00391,-0.35156 2.30468,0 4.0039,0.39062 1.71875,0.3711 2.96875,1.28907 1.23047,0.89843 1.875,2.32421 0.64453,1.42579 0.64453,3.53516 z m -3.65234,-5.3711 v -6.07421 q -1.67969,0.0976 -3.96484,0.29296 -2.26563,0.19532 -3.59375,0.56641 -1.58203,0.44922 -2.5586,1.40625 -0.97656,0.9375 -0.97656,2.59766 0,1.875 1.13281,2.83203 1.13282,0.9375 3.45703,0.9375 1.9336,0 3.53516,-0.74219 1.60156,-0.76172 2.96875,-1.81641 z"
           id="path85497" />
        <path
           d="M 723.79687,814.25884 H 720.125 v -30.39063 h 3.67187 z"
           id="path85499" />
      </g>
      <g
         aria-label="mGal"
         transform="matrix(0.26458333,0,0,0.26458333,-73.237202,-91.681178)"
         id="text6200-9-6-7-9"
         style="font-size:40px;line-height:1.25;-inkscape-font-specification:sans-serif;text-align:center;white-space:pre;shape-inside:url(#rect6202-0-2-2-0);fill:currentColor">
        <path
           d="m 677.42969,814.25884 h -3.67188 v -12.42188 q 0,-1.40625 -0.13672,-2.71484 -0.11718,-1.30859 -0.52734,-2.08984 -0.44922,-0.83985 -1.28906,-1.26954 -0.83985,-0.42968 -2.42188,-0.42968 -1.54297,0 -3.08594,0.78125 -1.54296,0.76172 -3.08593,1.95312 0.0586,0.44922 0.0976,1.05469 0.0391,0.58594 0.0391,1.17187 v 13.96485 h -3.67188 v -12.42188 q 0,-1.44531 -0.13672,-2.73437 -0.11719,-1.3086 -0.52734,-2.08985 -0.44922,-0.83984 -1.28906,-1.25 -0.83985,-0.42968 -2.42188,-0.42968 -1.50391,0 -3.02734,0.74218 -1.50391,0.74219 -3.00782,1.89454 v 16.28906 h -3.67187 v -21.81641 h 3.67187 v 2.42188 q 1.71875,-1.42578 3.41797,-2.22657 1.71875,-0.80078 3.65235,-0.80078 2.22656,0 3.76953,0.9375 1.5625,0.9375 2.32422,2.59766 2.22656,-1.875 4.0625,-2.69531 1.83593,-0.83985 3.92578,-0.83985 3.59375,0 5.29297,2.1875 1.71875,2.16797 1.71875,6.07422 z"
           id="path85502" />
        <path
           d="m 709.05078,812.1104 q -2.38281,1.09375 -5.21484,1.91406 -2.8125,0.80078 -5.44922,0.80078 -3.39844,0 -6.23047,-0.9375 -2.83203,-0.9375 -4.82422,-2.8125 -2.01172,-1.89453 -3.10547,-4.72656 -1.09375,-2.85156 -1.09375,-6.66015 0,-6.97266 4.0625,-10.9961 4.08203,-4.04297 11.19141,-4.04297 2.48047,0 5.05859,0.60547 2.59766,0.58594 5.58594,2.01172 v 4.58984 h -0.35156 q -0.60547,-0.46875 -1.75782,-1.23046 -1.15234,-0.76172 -2.26562,-1.26954 -1.34766,-0.60546 -3.06641,-0.99609 -1.69922,-0.41016 -3.86718,-0.41016 -4.88282,0 -7.73438,3.14454 -2.83203,3.125 -2.83203,8.47656 0,5.64453 2.96875,8.78906 2.96875,3.125 8.08594,3.125 1.875,0 3.73047,-0.37109 1.875,-0.3711 3.28125,-0.95703 v -7.12891 h -7.79297 v -3.39844 h 11.62109 z"
           id="path85504" />
        <path
           d="m 732.46875,814.25884 h -3.65234 v -2.32422 q -0.48829,0.33203 -1.32813,0.9375 -0.82031,0.58594 -1.60156,0.9375 -0.91797,0.44922 -2.10938,0.74219 -1.1914,0.3125 -2.79297,0.3125 -2.94921,0 -5,-1.95313 -2.05078,-1.95312 -2.05078,-4.98047 0,-2.48047 1.05469,-4.0039 1.07422,-1.54297 3.04688,-2.42188 1.99218,-0.8789 4.78515,-1.1914 2.79297,-0.3125 5.9961,-0.46875 v -0.56641 q 0,-1.25 -0.44922,-2.07031 -0.42969,-0.82032 -1.25,-1.28907 -0.78125,-0.44921 -1.875,-0.60546 -1.09375,-0.15625 -2.28516,-0.15625 -1.44531,0 -3.22266,0.39062 -1.77734,0.37109 -3.67187,1.09375 h -0.19531 v -3.73047 q 1.07422,-0.29297 3.10547,-0.64453 2.03125,-0.35156 4.0039,-0.35156 2.30469,0 4.00391,0.39062 1.71875,0.3711 2.96875,1.28907 1.23047,0.89843 1.875,2.32421 0.64453,1.42579 0.64453,3.53516 z m -3.65234,-5.3711 v -6.07421 q -1.67969,0.0976 -3.96485,0.29296 -2.26562,0.19532 -3.59375,0.56641 -1.58203,0.44922 -2.55859,1.40625 -0.97656,0.9375 -0.97656,2.59766 0,1.875 1.13281,2.83203 1.13281,0.9375 3.45703,0.9375 1.93359,0 3.53516,-0.74219 1.60156,-0.76172 2.96875,-1.81641 z"
           id="path85506" />
        <path
           d="m 743.25,814.25884 h -3.67188 V 783.86821 H 743.25 Z"
           id="path85508" />
      </g>
      <g
         aria-label="µGal"
         transform="matrix(0.26458333,0,0,0.26458333,-27.269752,-92.665614)"
         id="text6200-9-6-7-9-6"
         style="font-size:40px;line-height:1.25;-inkscape-font-specification:sans-serif;text-align:center;white-space:pre;shape-inside:url(#rect6202-0-2-2-0-3);fill:currentColor">
        <path
           d="m 670.55469,814.25884 h -3.47657 l -0.19531,-2.30469 q -1.15234,1.26953 -2.42187,1.99219 -1.25,0.72265 -3.02735,0.72265 -1.67968,0 -2.92968,-0.68359 -1.23047,-0.68359 -2.51954,-1.93359 v 10.2539 h -3.67187 v -29.86328 h 3.67187 v 16.36719 q 0.625,0.76172 2.12891,1.5625 1.52344,0.80078 3.30078,0.80078 1.81641,0 3.10547,-0.64453 1.30859,-0.66406 2.36328,-1.83594 v -16.25 h 3.67188 z"
           id="path85511" />
        <path
           d="m 702.42969,812.1104 q -2.38282,1.09375 -5.21485,1.91406 -2.8125,0.80078 -5.44922,0.80078 -3.39843,0 -6.23046,-0.9375 -2.83204,-0.9375 -4.82422,-2.8125 -2.01172,-1.89453 -3.10547,-4.72656 -1.09375,-2.85156 -1.09375,-6.66015 0,-6.97266 4.0625,-10.9961 4.08203,-4.04297 11.1914,-4.04297 2.48047,0 5.0586,0.60547 2.59765,0.58594 5.58594,2.01172 v 4.58984 h -0.35157 q -0.60547,-0.46875 -1.75781,-1.23046 -1.15234,-0.76172 -2.26562,-1.26954 -1.34766,-0.60546 -3.06641,-0.99609 -1.69922,-0.41016 -3.86719,-0.41016 -4.88281,0 -7.73437,3.14454 -2.83203,3.125 -2.83203,8.47656 0,5.64453 2.96875,8.78906 2.96875,3.125 8.08593,3.125 1.875,0 3.73047,-0.37109 1.875,-0.3711 3.28125,-0.95703 v -7.12891 h -7.79297 v -3.39844 h 11.6211 z"
           id="path85513" />
        <path
           d="m 725.84766,814.25884 h -3.65235 v -2.32422 q -0.48828,0.33203 -1.32812,0.9375 -0.82032,0.58594 -1.60157,0.9375 -0.91796,0.44922 -2.10937,0.74219 -1.19141,0.3125 -2.79297,0.3125 -2.94922,0 -5,-1.95313 -2.05078,-1.95312 -2.05078,-4.98047 0,-2.48047 1.05469,-4.0039 1.07422,-1.54297 3.04687,-2.42188 1.99219,-0.8789 4.78516,-1.1914 2.79297,-0.3125 5.99609,-0.46875 v -0.56641 q 0,-1.25 -0.44922,-2.07031 -0.42968,-0.82032 -1.25,-1.28907 -0.78125,-0.44921 -1.875,-0.60546 -1.09375,-0.15625 -2.28515,-0.15625 -1.44532,0 -3.22266,0.39062 -1.77734,0.37109 -3.67187,1.09375 h -0.19532 v -3.73047 q 1.07422,-0.29297 3.10547,-0.64453 2.03125,-0.35156 4.00391,-0.35156 2.30469,0 4.0039,0.39062 1.71875,0.3711 2.96875,1.28907 1.23047,0.89843 1.875,2.32421 0.64454,1.42579 0.64454,3.53516 z m -3.65235,-5.3711 v -6.07421 q -1.67969,0.0976 -3.96484,0.29296 -2.26563,0.19532 -3.59375,0.56641 -1.58203,0.44922 -2.5586,1.40625 -0.97656,0.9375 -0.97656,2.59766 0,1.875 1.13281,2.83203 1.13282,0.9375 3.45704,0.9375 1.93359,0 3.53515,-0.74219 1.60156,-0.76172 2.96875,-1.81641 z"
           id="path85515" />
        <path
           d="m 736.62891,814.25884 h -3.67188 v -30.39063 h 3.67188 z"
           id="path85517" />
      </g>
      <text
         xml:space="preserve"
         transform="matrix(0.26458333,0,0,0.26458333,123.87355,-54.465551)"
         id="text6200-9-6-6"
         style="font-style:normal;font-variant:normal;font-weight:normal;font-stretch:normal;font-size:40px;line-height:1.25;font-family:sans-serif;-inkscape-font-specification:sans-serif;text-align:start;white-space:pre;shape-inside:url(#rect6202-0-2-3);fill:currentColor"
         x="-461.93982"
         y="0"><tspan
           x="162.39648"
           y="814.25884"
           id="tspan85740"> Relativity, 1mm height change
</tspan><tspan
           x="162.39648"
           y="864.25884"
           id="tspan85742"> Ocean topography, polar motion 
</tspan><tspan
           x="162.39648"
           y="914.25884"
           id="tspan85744"> Nearby large buildings, hydrology
</tspan><tspan
           x="162.39648"
           y="964.25884"
           id="tspan85746"> Earth and Ocean tides, 1m height change
</tspan><tspan
           x="162.39648"
           y="1014.2588"
           id="tspan85748"> Large reservoirs
</tspan><tspan
           x="162.39648"
           y="1064.2588"
           id="tspan85750"> Internal mass distribution
</tspan><tspan
           x="162.39648"
           y="1114.2588"
           id="tspan85752"> Mountain, ocean trench, 1km height
</tspan><tspan
           x="162.39648"
           y="1164.2588"
           id="tspan85754"> Flattening and rotation</tspan></text>
      <path
         style="fill:none;stroke:currentColor;stroke-width:2.0289;stroke-linecap:round;stroke-linejoin:round;stroke-miterlimit:4;stroke-dasharray:none;stroke-opacity:1"
         d="m 156.46028,153.25935 v 17.87376 h 6.30272"
         id="path47355"
         sodipodi:nodetypes="ccc" />
      <path
         style="fill:none;stroke:currentColor;stroke-width:2.0289;stroke-linecap:round;stroke-linejoin:round;stroke-miterlimit:4;stroke-dasharray:none;stroke-opacity:1"
         d="m 140.73383,153.25935 v 29.95247 H 162.763"
         id="path47355-3"
         sodipodi:nodetypes="ccc" />
      <path
         style="fill:none;stroke:currentColor;stroke-width:2.02889;stroke-linecap:round;stroke-linejoin:round;stroke-miterlimit:4;stroke-dasharray:none;stroke-opacity:1"
         d="m 125.00739,153.25935 v 44.53582 H 162.763"
         id="path47355-3-5"
         sodipodi:nodetypes="ccc" />
      <path
         style="fill:none;stroke:currentColor;stroke-width:2.0289;stroke-linecap:round;stroke-linejoin:round;stroke-miterlimit:4;stroke-dasharray:none;stroke-opacity:1"
         d="m 109.28093,153.25935 v 57.94693 H 162.763"
         id="path47355-3-6"
         sodipodi:nodetypes="ccc" />
      <path
         style="fill:none;stroke:currentColor;stroke-width:2.0289;stroke-linecap:round;stroke-linejoin:round;stroke-miterlimit:4;stroke-dasharray:none;stroke-opacity:1"
         d="m 93.554483,153.25936 v 70.61503 H 162.763"
         id="path47355-3-2"
         sodipodi:nodetypes="ccc" />
      <path
         style="fill:none;stroke:currentColor;stroke-width:2.0289;stroke-linecap:round;stroke-linejoin:round;stroke-miterlimit:4;stroke-dasharray:none;stroke-opacity:1"
         d="m 77.828037,153.25935 v 84.26037 H 162.763"
         id="path47355-3-9"
         sodipodi:nodetypes="ccc" />
      <path
         style="fill:none;stroke:currentColor;stroke-width:2.0289;stroke-linecap:round;stroke-linejoin:round;stroke-miterlimit:4;stroke-dasharray:none;stroke-opacity:1"
         d="M 62.101576,153.25935 V 250.2924 H 162.763"
         id="path47355-3-1"
         sodipodi:nodetypes="ccc" />
    </g>
  </g>
</svg>
